<svg viewBox="0 0 533.33331 533.33331" xmlns="http://www.w3.org/2000/svg">
  <g transform="matrix(0.1333329826593399, 0, 0, -0.1333329826593399, 0.0006600000196996803, 533.3326416015624)" id="g12">
    <title>TfNSW B</title>
    <path id="path14" style="fill-opacity: 1; fill-rule: nonzero; stroke: none; fill: rgb(0, 158, 215);" d="m 1999.99,157.238 c -1016.177,0 -1842.885,826.684 -1842.885,1842.822 0,1016.16 826.708,1842.7 1842.885,1842.7 1016.06,0 1842.9,-826.54 1842.9,-1842.7 0,-1016.138 -826.84,-1842.822 -1842.9,-1842.822">
      <title>Background</title>
    </path>
    <path id="path16" style="fill:#ffffff;fill-opacity:1;fill-rule:nonzero;stroke:none" d="M 1999.99,4000 C 897.125,4000 0,3102.77 0,2000.06 0,897.238 897.125,0 1999.99,0 3102.88,0 4000,897.238 4000,2000.06 4000,3102.77 3102.88,4000 1999.99,4000 Z m 0,-314.32 c 929.52,0 1685.66,-756.26 1685.66,-1685.62 0,-929.6 -756.14,-1685.599 -1685.66,-1685.599 -929.51,0 -1685.654,755.999 -1685.654,1685.599 0,929.36 756.144,1685.62 1685.654,1685.62">
      <title>Ring</title>
    </path>
    <path id="path-3" style="fill:#ffffff;fill-opacity:1;fill-rule:nonzero;stroke:none" d="M 2012.856 1280.315 C 2274.733 1280.315 2397.103 1343.001 2397.103 1553.524 C 2394.273 1755.638 2269.024 1823.942 2066.95 1823.942 L 1745.348 1823.942 L 1745.348 1280.315 L 2012.856 1280.315 Z M 2343.037 2418.835 C 2343.037 2603.84 2214.918 2655.083 1990.069 2655.083 L 1745.348 2655.083 L 1745.348 2151.245 L 2015.715 2151.245 C 2251.946 2151.245 2343.037 2248.049 2343.037 2387.556 L 2343.037 2418.835 Z M 1335.46 918.9 L 1335.46 3002.264 L 2118.157 3002.264 C 2522.364 3002.264 2744.326 2794.543 2744.326 2487.159 L 2744.326 2441.602 C 2744.326 2230.98 2630.504 2068.742 2448.33 2003.268 C 2661.812 1963.469 2806.949 1784.126 2806.949 1530.825 L 2806.949 1493.788 C 2806.949 1157.973 2556.482 918.9 2115.326 918.9 L 1335.46 918.9">
      <title>B</title>
    </path>
  </g>
</svg>